<?xml version='1.0' encoding='utf-8'?>
<svg xmlns:xlink="http://www.w3.org/1999/xlink" class="pygal-chart" id="chart-bf3a5ceb-1a2f-4d1b-a56c-1730dbb99a8e" viewBox="0 0 800 600" xmlns="http://www.w3.org/2000/svg"><!--Generated with pygal 1.7.0 (etree) ©Kozea 2011-2014 on 2015-04-28--><!--http://pygal.org--><!--http://github.com/Kozea/pygal--><defs><style type="text/css">#chart-bf3a5ceb-1a2f-4d1b-a56c-1730dbb99a8e .title{font-family:"monospace";font-size:16px}#chart-bf3a5ceb-1a2f-4d1b-a56c-1730dbb99a8e .legends .legend text{font-family:"monospace";font-size:14px}#chart-bf3a5ceb-1a2f-4d1b-a56c-1730dbb99a8e .axis text{font-family:"monospace";font-size:10px}#chart-bf3a5ceb-1a2f-4d1b-a56c-1730dbb99a8e .axis text.major{font-family:"monospace";font-size:10px}#chart-bf3a5ceb-1a2f-4d1b-a56c-1730dbb99a8e .series text{font-family:"monospace";font-size:8px}#chart-bf3a5ceb-1a2f-4d1b-a56c-1730dbb99a8e .tooltip text{font-family:"monospace";font-size:16px}#chart-bf3a5ceb-1a2f-4d1b-a56c-1730dbb99a8e text.no_data{font-size:64px}
#chart-bf3a5ceb-1a2f-4d1b-a56c-1730dbb99a8e{background-color:black}#chart-bf3a5ceb-1a2f-4d1b-a56c-1730dbb99a8e path,#chart-bf3a5ceb-1a2f-4d1b-a56c-1730dbb99a8e line,#chart-bf3a5ceb-1a2f-4d1b-a56c-1730dbb99a8e rect,#chart-bf3a5ceb-1a2f-4d1b-a56c-1730dbb99a8e circle{-webkit-transition:250ms;-moz-transition:250ms;transition:250ms}#chart-bf3a5ceb-1a2f-4d1b-a56c-1730dbb99a8e .graph &gt; .background{fill:black}#chart-bf3a5ceb-1a2f-4d1b-a56c-1730dbb99a8e .plot &gt; .background{fill:#111}#chart-bf3a5ceb-1a2f-4d1b-a56c-1730dbb99a8e .graph{fill:#999}#chart-bf3a5ceb-1a2f-4d1b-a56c-1730dbb99a8e text.no_data{fill:#eee}#chart-bf3a5ceb-1a2f-4d1b-a56c-1730dbb99a8e .title{fill:#eee}#chart-bf3a5ceb-1a2f-4d1b-a56c-1730dbb99a8e .legends .legend text{fill:#999}#chart-bf3a5ceb-1a2f-4d1b-a56c-1730dbb99a8e .legends .legend:hover text{fill:#eee}#chart-bf3a5ceb-1a2f-4d1b-a56c-1730dbb99a8e .axis .line{stroke:#eee}#chart-bf3a5ceb-1a2f-4d1b-a56c-1730dbb99a8e .axis .guide.line{stroke:#555}#chart-bf3a5ceb-1a2f-4d1b-a56c-1730dbb99a8e .axis .major.line{stroke:#999}#chart-bf3a5ceb-1a2f-4d1b-a56c-1730dbb99a8e .axis text.major{stroke:#eee;fill:#eee}#chart-bf3a5ceb-1a2f-4d1b-a56c-1730dbb99a8e .axis.y .guides:hover .guide.line,#chart-bf3a5ceb-1a2f-4d1b-a56c-1730dbb99a8e .line-graph .axis.x .guides:hover .guide.line,#chart-bf3a5ceb-1a2f-4d1b-a56c-1730dbb99a8e .stackedline-graph .axis.x .guides:hover .guide.line,#chart-bf3a5ceb-1a2f-4d1b-a56c-1730dbb99a8e .xy-graph .axis.x .guides:hover .guide.line{stroke:#eee}#chart-bf3a5ceb-1a2f-4d1b-a56c-1730dbb99a8e .axis .guides:hover text{fill:#eee}#chart-bf3a5ceb-1a2f-4d1b-a56c-1730dbb99a8e .reactive{fill-opacity:.8}#chart-bf3a5ceb-1a2f-4d1b-a56c-1730dbb99a8e .reactive.active,#chart-bf3a5ceb-1a2f-4d1b-a56c-1730dbb99a8e .active .reactive{fill-opacity:.4}#chart-bf3a5ceb-1a2f-4d1b-a56c-1730dbb99a8e .series{stroke-width:1.0;stroke-linejoin:round;stroke-linecap:round;stroke-dasharray:0,0}#chart-bf3a5ceb-1a2f-4d1b-a56c-1730dbb99a8e .series text{fill:#eee}#chart-bf3a5ceb-1a2f-4d1b-a56c-1730dbb99a8e .tooltip rect{fill:#111;stroke:#eee}#chart-bf3a5ceb-1a2f-4d1b-a56c-1730dbb99a8e .tooltip text{fill:#eee}#chart-bf3a5ceb-1a2f-4d1b-a56c-1730dbb99a8e .map-element{fill:#999;stroke:#555 !important;opacity:.9;stroke-width:3;-webkit-transition:250ms;-moz-transition:250ms;-o-transition:250ms;transition:250ms}#chart-bf3a5ceb-1a2f-4d1b-a56c-1730dbb99a8e .map-element:hover{opacity:1;stroke-width:10}#chart-bf3a5ceb-1a2f-4d1b-a56c-1730dbb99a8e .color-0,#chart-bf3a5ceb-1a2f-4d1b-a56c-1730dbb99a8e .color-0 a:visited{stroke:#ff5995;fill:#ff5995}#chart-bf3a5ceb-1a2f-4d1b-a56c-1730dbb99a8e .color-1,#chart-bf3a5ceb-1a2f-4d1b-a56c-1730dbb99a8e .color-1 a:visited{stroke:#b6e354;fill:#b6e354}#chart-bf3a5ceb-1a2f-4d1b-a56c-1730dbb99a8e .color-2,#chart-bf3a5ceb-1a2f-4d1b-a56c-1730dbb99a8e .color-2 a:visited{stroke:#feed6c;fill:#feed6c}#chart-bf3a5ceb-1a2f-4d1b-a56c-1730dbb99a8e .color-3,#chart-bf3a5ceb-1a2f-4d1b-a56c-1730dbb99a8e .color-3 a:visited{stroke:#8cedff;fill:#8cedff}#chart-bf3a5ceb-1a2f-4d1b-a56c-1730dbb99a8e .color-4,#chart-bf3a5ceb-1a2f-4d1b-a56c-1730dbb99a8e .color-4 a:visited{stroke:#9e6ffe;fill:#9e6ffe}#chart-bf3a5ceb-1a2f-4d1b-a56c-1730dbb99a8e .color-5,#chart-bf3a5ceb-1a2f-4d1b-a56c-1730dbb99a8e .color-5 a:visited{stroke:#899ca1;fill:#899ca1}#chart-bf3a5ceb-1a2f-4d1b-a56c-1730dbb99a8e .color-6,#chart-bf3a5ceb-1a2f-4d1b-a56c-1730dbb99a8e .color-6 a:visited{stroke:#f8f8f2;fill:#f8f8f2}#chart-bf3a5ceb-1a2f-4d1b-a56c-1730dbb99a8e .color-7,#chart-bf3a5ceb-1a2f-4d1b-a56c-1730dbb99a8e .color-7 a:visited{stroke:#bf4646;fill:#bf4646}#chart-bf3a5ceb-1a2f-4d1b-a56c-1730dbb99a8e .color-8,#chart-bf3a5ceb-1a2f-4d1b-a56c-1730dbb99a8e .color-8 a:visited{stroke:#516083;fill:#516083}#chart-bf3a5ceb-1a2f-4d1b-a56c-1730dbb99a8e .color-9,#chart-bf3a5ceb-1a2f-4d1b-a56c-1730dbb99a8e .color-9 a:visited{stroke:#f92672;fill:#f92672}#chart-bf3a5ceb-1a2f-4d1b-a56c-1730dbb99a8e .color-10,#chart-bf3a5ceb-1a2f-4d1b-a56c-1730dbb99a8e .color-10 a:visited{stroke:#82b414;fill:#82b414}#chart-bf3a5ceb-1a2f-4d1b-a56c-1730dbb99a8e .color-11,#chart-bf3a5ceb-1a2f-4d1b-a56c-1730dbb99a8e .color-11 a:visited{stroke:#fd971f;fill:#fd971f}#chart-bf3a5ceb-1a2f-4d1b-a56c-1730dbb99a8e .color-12,#chart-bf3a5ceb-1a2f-4d1b-a56c-1730dbb99a8e .color-12 a:visited{stroke:#56c2d6;fill:#56c2d6}#chart-bf3a5ceb-1a2f-4d1b-a56c-1730dbb99a8e .color-13,#chart-bf3a5ceb-1a2f-4d1b-a56c-1730dbb99a8e .color-13 a:visited{stroke:#808384;fill:#808384}#chart-bf3a5ceb-1a2f-4d1b-a56c-1730dbb99a8e .color-14,#chart-bf3a5ceb-1a2f-4d1b-a56c-1730dbb99a8e .color-14 a:visited{stroke:#8c54fe;fill:#8c54fe}#chart-bf3a5ceb-1a2f-4d1b-a56c-1730dbb99a8e .color-15,#chart-bf3a5ceb-1a2f-4d1b-a56c-1730dbb99a8e .color-15 a:visited{stroke:#465457;fill:#465457}
#chart-bf3a5ceb-1a2f-4d1b-a56c-1730dbb99a8e text.no_data{text-anchor:middle}#chart-bf3a5ceb-1a2f-4d1b-a56c-1730dbb99a8e .guide.line{fill-opacity:0}#chart-bf3a5ceb-1a2f-4d1b-a56c-1730dbb99a8e .centered{text-anchor:middle}#chart-bf3a5ceb-1a2f-4d1b-a56c-1730dbb99a8e .title{text-anchor:middle}#chart-bf3a5ceb-1a2f-4d1b-a56c-1730dbb99a8e .legends .legend text{fill-opacity:1}#chart-bf3a5ceb-1a2f-4d1b-a56c-1730dbb99a8e .axis.x text{text-anchor:middle}#chart-bf3a5ceb-1a2f-4d1b-a56c-1730dbb99a8e .axis.x:not(.web) text[transform]{text-anchor:start}#chart-bf3a5ceb-1a2f-4d1b-a56c-1730dbb99a8e .axis.y text{text-anchor:end}#chart-bf3a5ceb-1a2f-4d1b-a56c-1730dbb99a8e .axis.y2 text{text-anchor:start}#chart-bf3a5ceb-1a2f-4d1b-a56c-1730dbb99a8e .axis.y .logarithmic text:not(.major),#chart-bf3a5ceb-1a2f-4d1b-a56c-1730dbb99a8e .axis.y2 .logarithmic text:not(.major){font-size:50%}#chart-bf3a5ceb-1a2f-4d1b-a56c-1730dbb99a8e .axis .guide.line{stroke-dasharray:4,4}#chart-bf3a5ceb-1a2f-4d1b-a56c-1730dbb99a8e .axis .major.guide.line{stroke-dasharray:6,6}#chart-bf3a5ceb-1a2f-4d1b-a56c-1730dbb99a8e .axis text.major{stroke-width:0.5px}#chart-bf3a5ceb-1a2f-4d1b-a56c-1730dbb99a8e .horizontal .axis.y .guide.line,#chart-bf3a5ceb-1a2f-4d1b-a56c-1730dbb99a8e .horizontal .axis.y2 .guide.line,#chart-bf3a5ceb-1a2f-4d1b-a56c-1730dbb99a8e .vertical .axis.x .guide.line{opacity:0}#chart-bf3a5ceb-1a2f-4d1b-a56c-1730dbb99a8e .horizontal .axis.always_show .guide.line,#chart-bf3a5ceb-1a2f-4d1b-a56c-1730dbb99a8e .vertical .axis.always_show .guide.line{opacity:1 !important}#chart-bf3a5ceb-1a2f-4d1b-a56c-1730dbb99a8e .axis.y .guides:hover .guide.line,#chart-bf3a5ceb-1a2f-4d1b-a56c-1730dbb99a8e .axis.y2 .guides:hover .guide.line,#chart-bf3a5ceb-1a2f-4d1b-a56c-1730dbb99a8e .axis.x .guides:hover .guide.line{opacity:1}#chart-bf3a5ceb-1a2f-4d1b-a56c-1730dbb99a8e .axis .guides:hover text{opacity:1}#chart-bf3a5ceb-1a2f-4d1b-a56c-1730dbb99a8e .nofill{fill:none}#chart-bf3a5ceb-1a2f-4d1b-a56c-1730dbb99a8e .subtle-fill{fill-opacity:.2}#chart-bf3a5ceb-1a2f-4d1b-a56c-1730dbb99a8e .dot{stroke-width:1px;fill-opacity:1}#chart-bf3a5ceb-1a2f-4d1b-a56c-1730dbb99a8e .dot.active{stroke-width:5px}#chart-bf3a5ceb-1a2f-4d1b-a56c-1730dbb99a8e .series text{stroke:none}#chart-bf3a5ceb-1a2f-4d1b-a56c-1730dbb99a8e .series text.active{opacity:1}#chart-bf3a5ceb-1a2f-4d1b-a56c-1730dbb99a8e .tooltip rect{fill-opacity:0.8}#chart-bf3a5ceb-1a2f-4d1b-a56c-1730dbb99a8e .tooltip text{fill-opacity:1}#chart-bf3a5ceb-1a2f-4d1b-a56c-1730dbb99a8e .tooltip text tspan.label{fill-opacity:.8}</style><script type="text/javascript">window.config = {"inner_radius": 0, "print_values": false, "tooltip_font_size": 16, "xrange": null, "legend_at_bottom_columns": null, "height": 600, "legend_at_bottom": false, "show_legend": true, "show_dots": false, "explicit_size": false, "legend_font_size": 14, "y_labels_major": null, "show_minor_x_labels": true, "major_label_font_size": 10, "fill": false, "half_pie": false, "x_value_formatter": null, "style": {"opacity": ".8", "foreground": "#999", "plot_background": "#111", "stroke_style": "round", "foreground_light": "#eee", "transition": "250ms", "foreground_dark": "#555", "stroke_dasharray": "0,0", "opacity_hover": ".4", "stroke_width": 1.0, "colors": ["#ff5995", "#b6e354", "#feed6c", "#8cedff", "#9e6ffe", "#899ca1", "#f8f8f2", "#bf4646", "#516083", "#f92672", "#82b414", "#fd971f", "#56c2d6", "#808384", "#8c54fe", "#465457"], "background": "black", "font_family": "monospace"}, "x_label_rotation": 0, "missing_value_fill_truncation": "x", "zero": 0, "margin_right": null, "interpolation_parameters": {}, "x_labels_major": null, "rounded_bars": null, "label_font_size": 10, "show_y_labels": true, "dots_size": 2.5, "show_y_guides": true, "show_minor_y_labels": true, "x_labels": null, "y_title": null, "value_font_size": 8, "order_min": null, "disable_xml_declaration": false, "strict": false, "css": ["style.css", "graph.css"], "mode": null, "show_only_major_dots": false, "y_label_rotation": 0, "human_readable": false, "show_x_guides": false, "spacing": 10, "x_labels_major_count": null, "pretty_print": false, "tooltip_border_radius": 0, "interpolate": null, "js": ["http://kozea.github.io/pygal.js/javascripts/svg.jquery.js", "http://kozea.github.io/pygal.js/javascripts/pygal-tooltips.js"], "y_labels": null, "y_labels_major_every": null, "x_label_format": "%Y-%m-%d %H:%M:%S.%f", "interpolation_precision": 250, "x_title": null, "value_formatter": null, "no_data_font_size": 64, "logarithmic": false, "width": 800, "print_zeroes": false, "no_data_text": "No data", "truncate_legend": null, "x_labels_major_every": null, "title": "Amplitude Modulated signal", "legend_box_size": 12, "no_prefix": false, "stroke": true, "title_font_size": 16, "include_x_axis": false, "range": null, "truncate_label": null, "margin_top": null, "margin_left": null, "y_labels_major_count": null, "margin_bottom": null, "margin": 20, "stack_from_top": false, "show_x_labels": true}</script><script type="text/javascript" xlink:href="http://kozea.github.io/pygal.js/javascripts/svg.jquery.js" /><script type="text/javascript" xlink:href="http://kozea.github.io/pygal.js/javascripts/pygal-tooltips.js" /></defs><title>Amplitude Modulated signal</title><g class="graph xy-graph vertical"><rect class="background" height="600" width="800" x="0" y="0" /><g class="plot" transform="translate(151, 46)"><rect class="background" height="514" width="628.4" x="0" y="0" /><g class="axis y"><g class="guides"><path class="guide line" d="M0.000000 485.218633 h628.400000" /><text class="" x="-5" y="488.718633195">-1.8</text></g><g class="guides"><path class="guide line" d="M0.000000 460.201053 h628.400000" /><text class="" x="-5" y="463.70105331">-1.6</text></g><g class="guides"><path class="guide line" d="M0.000000 435.183473 h628.400000" /><text class="" x="-5" y="438.683473425">-1.4</text></g><g class="guides"><path class="guide line" d="M0.000000 410.165894 h628.400000" /><text class="" x="-5" y="413.66589354">-1.2</text></g><g class="guides"><path class="major guide line" d="M0.000000 385.148314 h628.400000" /><text class="major" x="-5" y="388.648313656">-1.0</text></g><g class="guides"><path class="guide line" d="M0.000000 360.130734 h628.400000" /><text class="" x="-5" y="363.630733771">-0.8</text></g><g class="guides"><path class="guide line" d="M0.000000 335.113154 h628.400000" /><text class="" x="-5" y="338.613153886">-0.6</text></g><g class="guides"><path class="guide line" d="M0.000000 310.095574 h628.400000" /><text class="" x="-5" y="313.595574001">-0.4</text></g><g class="guides"><path class="guide line" d="M0.000000 285.077994 h628.400000" /><text class="" x="-5" y="288.577994117">-0.2</text></g><g class="guides"><path class="major line" d="M0.000000 260.060414 h628.400000" /><text class="major" x="-5" y="263.560414232">0.0</text></g><g class="guides"><path class="guide line" d="M0.000000 235.042834 h628.400000" /><text class="" x="-5" y="238.542834347">0.2</text></g><g class="guides"><path class="guide line" d="M0.000000 210.025254 h628.400000" /><text class="" x="-5" y="213.525254463">0.4</text></g><g class="guides"><path class="guide line" d="M0.000000 185.007675 h628.400000" /><text class="" x="-5" y="188.507674578">0.6</text></g><g class="guides"><path class="guide line" d="M0.000000 159.990095 h628.400000" /><text class="" x="-5" y="163.490094693">0.8</text></g><g class="guides"><path class="major guide line" d="M0.000000 134.972515 h628.400000" /><text class="major" x="-5" y="138.472514808">1.0</text></g><g class="guides"><path class="guide line" d="M0.000000 109.954935 h628.400000" /><text class="" x="-5" y="113.454934924">1.2</text></g><g class="guides"><path class="guide line" d="M0.000000 84.937355 h628.400000" /><text class="" x="-5" y="88.4373550388">1.4</text></g><g class="guides"><path class="guide line" d="M0.000000 59.919775 h628.400000" /><text class="" x="-5" y="63.4197751541">1.6</text></g><g class="guides"><path class="guide line" d="M0.000000 34.902195 h628.400000" /><text class="" x="-5" y="38.4021952694">1.8</text></g><g class="guides"><path class="major guide line" d="M0.000000 9.884615 h628.400000" /><text class="major" x="-5" y="13.3846153846">2.0</text></g></g><g class="axis x"><g class="guides"><path class="line" d="M12.084615 0.000000 v514.000000" /><text class="" x="12.0846153846" y="529.0">0.0</text></g><g class="guides"><path class="guide line" d="M42.447971 0.000000 v514.000000" /><text class="" x="42.4479706223" y="529.0">10.0</text></g><g class="guides"><path class="guide line" d="M72.811326 0.000000 v514.000000" /><text class="" x="72.8113258601" y="529.0">20.0</text></g><g class="guides"><path class="guide line" d="M103.174681 0.000000 v514.000000" /><text class="" x="103.174681098" y="529.0">30.0</text></g><g class="guides"><path class="guide line" d="M133.538036 0.000000 v514.000000" /><text class="" x="133.538036336" y="529.0">40.0</text></g><g class="guides"><path class="guide line" d="M163.901392 0.000000 v514.000000" /><text class="" x="163.901391573" y="529.0">50.0</text></g><g class="guides"><path class="guide line" d="M194.264747 0.000000 v514.000000" /><text class="" x="194.264746811" y="529.0">60.0</text></g><g class="guides"><path class="guide line" d="M224.628102 0.000000 v514.000000" /><text class="" x="224.628102049" y="529.0">70.0</text></g><g class="guides"><path class="guide line" d="M254.991457 0.000000 v514.000000" /><text class="" x="254.991457286" y="529.0">80.0</text></g><g class="guides"><path class="guide line" d="M285.354813 0.000000 v514.000000" /><text class="" x="285.354812524" y="529.0">90.0</text></g><g class="guides"><path class="guide line" d="M315.718168 0.000000 v514.000000" /><text class="" x="315.718167762" y="529.0">100.0</text></g><g class="guides"><path class="guide line" d="M346.081523 0.000000 v514.000000" /><text class="" x="346.081523" y="529.0">110.0</text></g><g class="guides"><path class="guide line" d="M376.444878 0.000000 v514.000000" /><text class="" x="376.444878237" y="529.0">120.0</text></g><g class="guides"><path class="guide line" d="M406.808233 0.000000 v514.000000" /><text class="" x="406.808233475" y="529.0">130.0</text></g><g class="guides"><path class="guide line" d="M437.171589 0.000000 v514.000000" /><text class="" x="437.171588713" y="529.0">140.0</text></g><g class="guides"><path class="guide line" d="M467.534944 0.000000 v514.000000" /><text class="" x="467.534943951" y="529.0">150.0</text></g><g class="guides"><path class="guide line" d="M497.898299 0.000000 v514.000000" /><text class="" x="497.898299188" y="529.0">160.0</text></g><g class="guides"><path class="guide line" d="M528.261654 0.000000 v514.000000" /><text class="" x="528.261654426" y="529.0">170.0</text></g><g class="guides"><path class="guide line" d="M558.625010 0.000000 v514.000000" /><text class="" x="558.625009664" y="529.0">180.0</text></g><g class="guides"><path class="guide line" d="M588.988365 0.000000 v514.000000" /><text class="" x="588.988364901" y="529.0">190.0</text></g></g><g class="series serie-0 color-0"><path class="line reactive nofill" d="M12.084615 9.884615 L15.120951 158.223176 18.157286 425.249213 21.193622 493.010090 24.229957 286.586633 27.266293 57.533739 30.302629 74.160592 33.338964 303.729818 36.375300 467.125519 39.411635 381.454320 42.447971 166.192416 45.484306 78.944952 48.520642 204.542566 51.556977 375.831797 54.593313 394.955833 57.629648 263.019953 60.665984 150.318629 63.702319 177.278589 66.738655 287.484170 69.774990 343.964372 72.811326 298.424364 75.847661 225.221738 78.883997 209.391346 81.920332 250.002841 84.956668 285.936555 87.993003 282.045747 91.029339 258.872346 94.065675 248.804776 97.102010 255.007040 100.138346 261.394907 103.174681 261.311009 106.211017 260.108882 109.247352 259.925315 112.283688 258.549177 115.320023 259.420033 118.356359 266.730035 121.392694 270.895989 124.429030 257.128374 127.465365 234.828638 130.501701 238.350215 133.538036 279.475535 136.574372 313.192574 139.610707 283.476143 142.647043 207.646397 145.683378 178.790349 148.719714 253.520547 151.756049 358.226072 154.792385 357.366386 157.828721 227.270101 160.865056 113.958504 163.901392 169.758865 166.937727 350.622557 169.974063 442.135893 173.010398 315.196962 176.046734 104.707179 179.083069 66.919020 182.119405 264.994887 185.155740 471.610717 188.192076 432.261419 191.228411 181.485679 194.264747 15.824110 197.301082 139.223615 200.337418 409.545905 203.373753 504.115385 206.410089 309.350481 209.446424 58.739146 212.482760 49.712192 215.519095 286.523122 218.555431 482.780311 221.591767 411.518474 224.628102 170.506345 227.664438 49.344012 230.700773 177.982455 233.737109 387.391926 236.773444 431.435623 239.809780 278.634714 242.846115 125.082895 245.882451 142.606092 248.918786 286.155158 251.955122 376.488919 254.991457 324.018052 258.027793 213.951061 261.064128 177.721180 264.100464 236.896391 267.136799 303.972799 270.173135 305.945504 273.209470 260.943594 276.245806 231.645161 279.282141 242.111322 282.318477 264.837570 285.354813 271.079371 288.391148 263.494863 291.427484 258.290116 294.463819 259.103116 297.500155 260.051168 300.536490 260.339085 303.572826 261.753199 306.609161 259.747412 309.645497 251.896658 312.681832 250.369999 315.718168 267.457450 318.754503 287.482022 321.790839 276.069641 324.827174 231.600191 327.863510 207.071374 330.899845 249.952628 333.936181 324.581465 336.972516 334.436334 340.008852 244.497009 343.045187 150.868267 346.081523 180.506827 349.117859 321.973617 352.154194 410.393210 355.190530 319.748174 358.226865 138.152278 361.263201 86.033243 364.299536 247.088132 367.335872 442.240012 370.372207 429.552762 373.408543 206.180607 376.444878 33.011462 379.481214 126.903002 382.517549 387.165660 385.553885 503.655787 388.590220 330.485620 391.626556 70.179822 394.662891 34.065012 397.699227 265.623859 400.735562 487.548059 403.771898 437.660833 406.808233 182.275082 409.844569 28.182365 412.880905 150.055106 415.917240 390.564928 418.953576 464.122816 421.989911 299.478104 425.026247 106.075677 428.062582 106.548931 431.098918 278.476349 434.135253 407.197930 437.171589 354.868165 440.207924 207.088933 443.244260 142.827003 446.280595 217.312677 449.316931 321.827439 452.353266 336.905797 455.389602 267.686816 458.425937 209.743065 461.462273 220.893038 464.498608 267.716162 467.534944 289.389552 470.571279 273.470035 473.607615 252.362458 476.643951 249.834956 479.680286 258.144526 482.716622 262.028886 485.752957 260.731657 488.789293 260.060501 491.825628 259.581919 494.861964 258.313976 497.898299 261.564148 500.934635 269.467337 503.970970 267.852171 507.007306 248.081427 510.043641 231.734653 513.079977 251.100148 516.116312 296.739620 519.152648 310.138731 522.188983 255.566891 525.225319 186.105960 528.261654 196.680077 531.297990 297.863742 534.334325 375.195308 537.370661 317.264978 540.406997 171.225918 543.443332 112.879285 546.479668 234.722172 549.516003 407.963443 552.552339 417.251709 555.588674 229.475948 558.625010 59.634517 561.661345 122.901610 564.697681 360.803983 567.734016 491.587804 570.770352 347.316196 573.806687 90.362137 576.843023 29.057257 579.879358 243.639457 582.915694 481.084677 585.952029 456.951102 588.988365 200.038693 592.024700 17.620302 595.061036 123.690809 598.097371 384.995861 601.133707 489.711286 604.170043 323.709360 607.206378 95.483972 610.242714 72.481533 613.279049 264.502753 616.315385 432.709903" /></g></g><g class="titles"><text class="title plot_title" x="400.0" y="26">Amplitude Modulated signal</text></g><g class="plot overlay" transform="translate(151, 46)"><g class="series serie-0 color-0" /></g><g class="plot text-overlay" transform="translate(151, 46)"><g class="series serie-0 color-0" /></g><g class="plot tooltip-overlay" transform="translate(151, 46)"><g class="tooltip" style="opacity: 0" transform="translate(0 0)"><a><rect class="tooltip-box" height="0" rx="0" ry="0" width="0" /><text class="text"><tspan class="label" /><tspan class="value" /></text></a></g></g><g class="legends" transform="translate(10, 56)"><g class="legend reactive activate-serie" id="activate-serie-0"><rect class="color-0 reactive" height="12" width="12" x="0.0" y="1.0" /><text x="17.0" y="11.2">AM Signal</text></g></g><g class="legends" transform="translate(790, 56)" /></g></svg>