<?xml version='1.0' encoding='utf-8'?>
<svg xmlns:xlink="http://www.w3.org/1999/xlink" class="pygal-chart" id="chart-1212c7f3-bbc9-4e74-b6cb-29b84e3680f5" viewBox="0 0 800 600" xmlns="http://www.w3.org/2000/svg"><!--Generated with pygal 1.7.0 (etree) ©Kozea 2011-2014 on 2015-04-28--><!--http://pygal.org--><!--http://github.com/Kozea/pygal--><defs><style type="text/css">#chart-1212c7f3-bbc9-4e74-b6cb-29b84e3680f5 .title{font-family:"monospace";font-size:16px}#chart-1212c7f3-bbc9-4e74-b6cb-29b84e3680f5 .legends .legend text{font-family:"monospace";font-size:14px}#chart-1212c7f3-bbc9-4e74-b6cb-29b84e3680f5 .axis text{font-family:"monospace";font-size:10px}#chart-1212c7f3-bbc9-4e74-b6cb-29b84e3680f5 .axis text.major{font-family:"monospace";font-size:10px}#chart-1212c7f3-bbc9-4e74-b6cb-29b84e3680f5 .series text{font-family:"monospace";font-size:8px}#chart-1212c7f3-bbc9-4e74-b6cb-29b84e3680f5 .tooltip text{font-family:"monospace";font-size:16px}#chart-1212c7f3-bbc9-4e74-b6cb-29b84e3680f5 text.no_data{font-size:64px}
#chart-1212c7f3-bbc9-4e74-b6cb-29b84e3680f5{background-color:black}#chart-1212c7f3-bbc9-4e74-b6cb-29b84e3680f5 path,#chart-1212c7f3-bbc9-4e74-b6cb-29b84e3680f5 line,#chart-1212c7f3-bbc9-4e74-b6cb-29b84e3680f5 rect,#chart-1212c7f3-bbc9-4e74-b6cb-29b84e3680f5 circle{-webkit-transition:250ms;-moz-transition:250ms;transition:250ms}#chart-1212c7f3-bbc9-4e74-b6cb-29b84e3680f5 .graph &gt; .background{fill:black}#chart-1212c7f3-bbc9-4e74-b6cb-29b84e3680f5 .plot &gt; .background{fill:#111}#chart-1212c7f3-bbc9-4e74-b6cb-29b84e3680f5 .graph{fill:#999}#chart-1212c7f3-bbc9-4e74-b6cb-29b84e3680f5 text.no_data{fill:#eee}#chart-1212c7f3-bbc9-4e74-b6cb-29b84e3680f5 .title{fill:#eee}#chart-1212c7f3-bbc9-4e74-b6cb-29b84e3680f5 .legends .legend text{fill:#999}#chart-1212c7f3-bbc9-4e74-b6cb-29b84e3680f5 .legends .legend:hover text{fill:#eee}#chart-1212c7f3-bbc9-4e74-b6cb-29b84e3680f5 .axis .line{stroke:#eee}#chart-1212c7f3-bbc9-4e74-b6cb-29b84e3680f5 .axis .guide.line{stroke:#555}#chart-1212c7f3-bbc9-4e74-b6cb-29b84e3680f5 .axis .major.line{stroke:#999}#chart-1212c7f3-bbc9-4e74-b6cb-29b84e3680f5 .axis text.major{stroke:#eee;fill:#eee}#chart-1212c7f3-bbc9-4e74-b6cb-29b84e3680f5 .axis.y .guides:hover .guide.line,#chart-1212c7f3-bbc9-4e74-b6cb-29b84e3680f5 .line-graph .axis.x .guides:hover .guide.line,#chart-1212c7f3-bbc9-4e74-b6cb-29b84e3680f5 .stackedline-graph .axis.x .guides:hover .guide.line,#chart-1212c7f3-bbc9-4e74-b6cb-29b84e3680f5 .xy-graph .axis.x .guides:hover .guide.line{stroke:#eee}#chart-1212c7f3-bbc9-4e74-b6cb-29b84e3680f5 .axis .guides:hover text{fill:#eee}#chart-1212c7f3-bbc9-4e74-b6cb-29b84e3680f5 .reactive{fill-opacity:.8}#chart-1212c7f3-bbc9-4e74-b6cb-29b84e3680f5 .reactive.active,#chart-1212c7f3-bbc9-4e74-b6cb-29b84e3680f5 .active .reactive{fill-opacity:.4}#chart-1212c7f3-bbc9-4e74-b6cb-29b84e3680f5 .series{stroke-width:1.0;stroke-linejoin:round;stroke-linecap:round;stroke-dasharray:0,0}#chart-1212c7f3-bbc9-4e74-b6cb-29b84e3680f5 .series text{fill:#eee}#chart-1212c7f3-bbc9-4e74-b6cb-29b84e3680f5 .tooltip rect{fill:#111;stroke:#eee}#chart-1212c7f3-bbc9-4e74-b6cb-29b84e3680f5 .tooltip text{fill:#eee}#chart-1212c7f3-bbc9-4e74-b6cb-29b84e3680f5 .map-element{fill:#999;stroke:#555 !important;opacity:.9;stroke-width:3;-webkit-transition:250ms;-moz-transition:250ms;-o-transition:250ms;transition:250ms}#chart-1212c7f3-bbc9-4e74-b6cb-29b84e3680f5 .map-element:hover{opacity:1;stroke-width:10}#chart-1212c7f3-bbc9-4e74-b6cb-29b84e3680f5 .color-0,#chart-1212c7f3-bbc9-4e74-b6cb-29b84e3680f5 .color-0 a:visited{stroke:#ff5995;fill:#ff5995}#chart-1212c7f3-bbc9-4e74-b6cb-29b84e3680f5 .color-1,#chart-1212c7f3-bbc9-4e74-b6cb-29b84e3680f5 .color-1 a:visited{stroke:#b6e354;fill:#b6e354}#chart-1212c7f3-bbc9-4e74-b6cb-29b84e3680f5 .color-2,#chart-1212c7f3-bbc9-4e74-b6cb-29b84e3680f5 .color-2 a:visited{stroke:#feed6c;fill:#feed6c}#chart-1212c7f3-bbc9-4e74-b6cb-29b84e3680f5 .color-3,#chart-1212c7f3-bbc9-4e74-b6cb-29b84e3680f5 .color-3 a:visited{stroke:#8cedff;fill:#8cedff}#chart-1212c7f3-bbc9-4e74-b6cb-29b84e3680f5 .color-4,#chart-1212c7f3-bbc9-4e74-b6cb-29b84e3680f5 .color-4 a:visited{stroke:#9e6ffe;fill:#9e6ffe}#chart-1212c7f3-bbc9-4e74-b6cb-29b84e3680f5 .color-5,#chart-1212c7f3-bbc9-4e74-b6cb-29b84e3680f5 .color-5 a:visited{stroke:#899ca1;fill:#899ca1}#chart-1212c7f3-bbc9-4e74-b6cb-29b84e3680f5 .color-6,#chart-1212c7f3-bbc9-4e74-b6cb-29b84e3680f5 .color-6 a:visited{stroke:#f8f8f2;fill:#f8f8f2}#chart-1212c7f3-bbc9-4e74-b6cb-29b84e3680f5 .color-7,#chart-1212c7f3-bbc9-4e74-b6cb-29b84e3680f5 .color-7 a:visited{stroke:#bf4646;fill:#bf4646}#chart-1212c7f3-bbc9-4e74-b6cb-29b84e3680f5 .color-8,#chart-1212c7f3-bbc9-4e74-b6cb-29b84e3680f5 .color-8 a:visited{stroke:#516083;fill:#516083}#chart-1212c7f3-bbc9-4e74-b6cb-29b84e3680f5 .color-9,#chart-1212c7f3-bbc9-4e74-b6cb-29b84e3680f5 .color-9 a:visited{stroke:#f92672;fill:#f92672}#chart-1212c7f3-bbc9-4e74-b6cb-29b84e3680f5 .color-10,#chart-1212c7f3-bbc9-4e74-b6cb-29b84e3680f5 .color-10 a:visited{stroke:#82b414;fill:#82b414}#chart-1212c7f3-bbc9-4e74-b6cb-29b84e3680f5 .color-11,#chart-1212c7f3-bbc9-4e74-b6cb-29b84e3680f5 .color-11 a:visited{stroke:#fd971f;fill:#fd971f}#chart-1212c7f3-bbc9-4e74-b6cb-29b84e3680f5 .color-12,#chart-1212c7f3-bbc9-4e74-b6cb-29b84e3680f5 .color-12 a:visited{stroke:#56c2d6;fill:#56c2d6}#chart-1212c7f3-bbc9-4e74-b6cb-29b84e3680f5 .color-13,#chart-1212c7f3-bbc9-4e74-b6cb-29b84e3680f5 .color-13 a:visited{stroke:#808384;fill:#808384}#chart-1212c7f3-bbc9-4e74-b6cb-29b84e3680f5 .color-14,#chart-1212c7f3-bbc9-4e74-b6cb-29b84e3680f5 .color-14 a:visited{stroke:#8c54fe;fill:#8c54fe}#chart-1212c7f3-bbc9-4e74-b6cb-29b84e3680f5 .color-15,#chart-1212c7f3-bbc9-4e74-b6cb-29b84e3680f5 .color-15 a:visited{stroke:#465457;fill:#465457}
#chart-1212c7f3-bbc9-4e74-b6cb-29b84e3680f5 text.no_data{text-anchor:middle}#chart-1212c7f3-bbc9-4e74-b6cb-29b84e3680f5 .guide.line{fill-opacity:0}#chart-1212c7f3-bbc9-4e74-b6cb-29b84e3680f5 .centered{text-anchor:middle}#chart-1212c7f3-bbc9-4e74-b6cb-29b84e3680f5 .title{text-anchor:middle}#chart-1212c7f3-bbc9-4e74-b6cb-29b84e3680f5 .legends .legend text{fill-opacity:1}#chart-1212c7f3-bbc9-4e74-b6cb-29b84e3680f5 .axis.x text{text-anchor:middle}#chart-1212c7f3-bbc9-4e74-b6cb-29b84e3680f5 .axis.x:not(.web) text[transform]{text-anchor:start}#chart-1212c7f3-bbc9-4e74-b6cb-29b84e3680f5 .axis.y text{text-anchor:end}#chart-1212c7f3-bbc9-4e74-b6cb-29b84e3680f5 .axis.y2 text{text-anchor:start}#chart-1212c7f3-bbc9-4e74-b6cb-29b84e3680f5 .axis.y .logarithmic text:not(.major),#chart-1212c7f3-bbc9-4e74-b6cb-29b84e3680f5 .axis.y2 .logarithmic text:not(.major){font-size:50%}#chart-1212c7f3-bbc9-4e74-b6cb-29b84e3680f5 .axis .guide.line{stroke-dasharray:4,4}#chart-1212c7f3-bbc9-4e74-b6cb-29b84e3680f5 .axis .major.guide.line{stroke-dasharray:6,6}#chart-1212c7f3-bbc9-4e74-b6cb-29b84e3680f5 .axis text.major{stroke-width:0.5px}#chart-1212c7f3-bbc9-4e74-b6cb-29b84e3680f5 .horizontal .axis.y .guide.line,#chart-1212c7f3-bbc9-4e74-b6cb-29b84e3680f5 .horizontal .axis.y2 .guide.line,#chart-1212c7f3-bbc9-4e74-b6cb-29b84e3680f5 .vertical .axis.x .guide.line{opacity:0}#chart-1212c7f3-bbc9-4e74-b6cb-29b84e3680f5 .horizontal .axis.always_show .guide.line,#chart-1212c7f3-bbc9-4e74-b6cb-29b84e3680f5 .vertical .axis.always_show .guide.line{opacity:1 !important}#chart-1212c7f3-bbc9-4e74-b6cb-29b84e3680f5 .axis.y .guides:hover .guide.line,#chart-1212c7f3-bbc9-4e74-b6cb-29b84e3680f5 .axis.y2 .guides:hover .guide.line,#chart-1212c7f3-bbc9-4e74-b6cb-29b84e3680f5 .axis.x .guides:hover .guide.line{opacity:1}#chart-1212c7f3-bbc9-4e74-b6cb-29b84e3680f5 .axis .guides:hover text{opacity:1}#chart-1212c7f3-bbc9-4e74-b6cb-29b84e3680f5 .nofill{fill:none}#chart-1212c7f3-bbc9-4e74-b6cb-29b84e3680f5 .subtle-fill{fill-opacity:.2}#chart-1212c7f3-bbc9-4e74-b6cb-29b84e3680f5 .dot{stroke-width:1px;fill-opacity:1}#chart-1212c7f3-bbc9-4e74-b6cb-29b84e3680f5 .dot.active{stroke-width:5px}#chart-1212c7f3-bbc9-4e74-b6cb-29b84e3680f5 .series text{stroke:none}#chart-1212c7f3-bbc9-4e74-b6cb-29b84e3680f5 .series text.active{opacity:1}#chart-1212c7f3-bbc9-4e74-b6cb-29b84e3680f5 .tooltip rect{fill-opacity:0.8}#chart-1212c7f3-bbc9-4e74-b6cb-29b84e3680f5 .tooltip text{fill-opacity:1}#chart-1212c7f3-bbc9-4e74-b6cb-29b84e3680f5 .tooltip text tspan.label{fill-opacity:.8}</style><script type="text/javascript">window.config = {"inner_radius": 0, "print_values": false, "tooltip_font_size": 16, "xrange": null, "legend_at_bottom_columns": null, "height": 600, "legend_at_bottom": false, "show_legend": true, "show_dots": false, "explicit_size": false, "legend_font_size": 14, "y_labels_major": null, "show_minor_x_labels": true, "major_label_font_size": 10, "fill": false, "half_pie": false, "x_value_formatter": null, "style": {"opacity": ".8", "foreground": "#999", "plot_background": "#111", "stroke_style": "round", "foreground_light": "#eee", "transition": "250ms", "foreground_dark": "#555", "stroke_dasharray": "0,0", "opacity_hover": ".4", "stroke_width": 1.0, "colors": ["#ff5995", "#b6e354", "#feed6c", "#8cedff", "#9e6ffe", "#899ca1", "#f8f8f2", "#bf4646", "#516083", "#f92672", "#82b414", "#fd971f", "#56c2d6", "#808384", "#8c54fe", "#465457"], "background": "black", "font_family": "monospace"}, "x_label_rotation": 0, "missing_value_fill_truncation": "x", "zero": 0, "margin_right": null, "interpolation_parameters": {}, "x_labels_major": null, "rounded_bars": null, "label_font_size": 10, "show_y_labels": true, "dots_size": 2.5, "show_y_guides": true, "show_minor_y_labels": true, "x_labels": null, "y_title": null, "value_font_size": 8, "order_min": null, "disable_xml_declaration": false, "strict": false, "css": ["style.css", "graph.css"], "mode": null, "show_only_major_dots": false, "y_label_rotation": 0, "human_readable": false, "show_x_guides": false, "spacing": 10, "x_labels_major_count": null, "pretty_print": false, "tooltip_border_radius": 0, "interpolate": null, "js": ["http://kozea.github.io/pygal.js/javascripts/svg.jquery.js", "http://kozea.github.io/pygal.js/javascripts/pygal-tooltips.js"], "y_labels": null, "y_labels_major_every": null, "x_label_format": "%Y-%m-%d %H:%M:%S.%f", "interpolation_precision": 250, "x_title": null, "value_formatter": null, "no_data_font_size": 64, "logarithmic": false, "width": 800, "print_zeroes": false, "no_data_text": "No data", "truncate_legend": null, "x_labels_major_every": null, "title": "Carrier and Modulating Signal", "legend_box_size": 12, "no_prefix": false, "stroke": true, "title_font_size": 16, "include_x_axis": false, "range": null, "truncate_label": null, "margin_top": null, "margin_left": null, "y_labels_major_count": null, "margin_bottom": null, "margin": 20, "stack_from_top": false, "show_x_labels": true}</script><script type="text/javascript" xlink:href="http://kozea.github.io/pygal.js/javascripts/svg.jquery.js" /><script type="text/javascript" xlink:href="http://kozea.github.io/pygal.js/javascripts/pygal-tooltips.js" /></defs><title>Carrier and Modulating Signal</title><g class="graph xy-graph vertical"><rect class="background" height="600" width="800" x="0" y="0" /><g class="plot" transform="translate(193, 46)"><rect class="background" height="514" width="586.4" x="0" y="0" /><g class="axis y"><g class="guides"><path class="guide line" d="M0.000000 479.411290 h586.400000" /><text class="" x="-5" y="482.911289713">-0.9</text></g><g class="guides"><path class="guide line" d="M0.000000 454.699359 h586.400000" /><text class="" x="-5" y="458.199359485">-0.8</text></g><g class="guides"><path class="guide line" d="M0.000000 429.987429 h586.400000" /><text class="" x="-5" y="433.487429257">-0.7</text></g><g class="guides"><path class="guide line" d="M0.000000 405.275499 h586.400000" /><text class="" x="-5" y="408.77549903">-0.6</text></g><g class="guides"><path class="major guide line" d="M0.000000 380.563569 h586.400000" /><text class="major" x="-5" y="384.063568802">-0.5</text></g><g class="guides"><path class="guide line" d="M0.000000 355.851639 h586.400000" /><text class="" x="-5" y="359.351638574">-0.4</text></g><g class="guides"><path class="guide line" d="M0.000000 331.139708 h586.400000" /><text class="" x="-5" y="334.639708346">-0.3</text></g><g class="guides"><path class="guide line" d="M0.000000 306.427778 h586.400000" /><text class="" x="-5" y="309.927778118">-0.2</text></g><g class="guides"><path class="guide line" d="M0.000000 281.715848 h586.400000" /><text class="" x="-5" y="285.215847891">-0.1</text></g><g class="guides"><path class="major line" d="M0.000000 257.003918 h586.400000" /><text class="major" x="-5" y="260.503917663">0.0</text></g><g class="guides"><path class="guide line" d="M0.000000 232.291987 h586.400000" /><text class="" x="-5" y="235.791987435">0.1</text></g><g class="guides"><path class="guide line" d="M0.000000 207.580057 h586.400000" /><text class="" x="-5" y="211.080057207">0.2</text></g><g class="guides"><path class="guide line" d="M0.000000 182.868127 h586.400000" /><text class="" x="-5" y="186.368126979">0.3</text></g><g class="guides"><path class="guide line" d="M0.000000 158.156197 h586.400000" /><text class="" x="-5" y="161.656196751">0.4</text></g><g class="guides"><path class="major guide line" d="M0.000000 133.444267 h586.400000" /><text class="major" x="-5" y="136.944266524">0.5</text></g><g class="guides"><path class="guide line" d="M0.000000 108.732336 h586.400000" /><text class="" x="-5" y="112.232336296">0.6</text></g><g class="guides"><path class="guide line" d="M0.000000 84.020406 h586.400000" /><text class="" x="-5" y="87.520406068">0.7</text></g><g class="guides"><path class="guide line" d="M0.000000 59.308476 h586.400000" /><text class="" x="-5" y="62.8084758402">0.8</text></g><g class="guides"><path class="guide line" d="M0.000000 34.596546 h586.400000" /><text class="" x="-5" y="38.0965456124">0.9</text></g><g class="guides"><path class="major guide line" d="M0.000000 9.884615 h586.400000" /><text class="major" x="-5" y="13.3846153846">1.0</text></g></g><g class="axis x"><g class="guides"><path class="line" d="M11.276923 0.000000 v514.000000" /><text class="" x="11.2769230769" y="529.0">0.0</text></g><g class="guides"><path class="guide line" d="M39.610901 0.000000 v514.000000" /><text class="" x="39.6109006571" y="529.0">10.0</text></g><g class="guides"><path class="guide line" d="M67.944878 0.000000 v514.000000" /><text class="" x="67.9448782373" y="529.0">20.0</text></g><g class="guides"><path class="guide line" d="M96.278856 0.000000 v514.000000" /><text class="" x="96.2788558175" y="529.0">30.0</text></g><g class="guides"><path class="guide line" d="M124.612833 0.000000 v514.000000" /><text class="" x="124.612833398" y="529.0">40.0</text></g><g class="guides"><path class="guide line" d="M152.946811 0.000000 v514.000000" /><text class="" x="152.946810978" y="529.0">50.0</text></g><g class="guides"><path class="guide line" d="M181.280789 0.000000 v514.000000" /><text class="" x="181.280788558" y="529.0">60.0</text></g><g class="guides"><path class="guide line" d="M209.614766 0.000000 v514.000000" /><text class="" x="209.614766138" y="529.0">70.0</text></g><g class="guides"><path class="guide line" d="M237.948744 0.000000 v514.000000" /><text class="" x="237.948743719" y="529.0">80.0</text></g><g class="guides"><path class="guide line" d="M266.282721 0.000000 v514.000000" /><text class="" x="266.282721299" y="529.0">90.0</text></g><g class="guides"><path class="guide line" d="M294.616699 0.000000 v514.000000" /><text class="" x="294.616698879" y="529.0">100…</text><title>100.0</title></g><g class="guides"><path class="guide line" d="M322.950676 0.000000 v514.000000" /><text class="" x="322.950676459" y="529.0">110…</text><title>110.0</title></g><g class="guides"><path class="guide line" d="M351.284654 0.000000 v514.000000" /><text class="" x="351.284654039" y="529.0">120…</text><title>120.0</title></g><g class="guides"><path class="guide line" d="M379.618632 0.000000 v514.000000" /><text class="" x="379.61863162" y="529.0">130…</text><title>130.0</title></g><g class="guides"><path class="guide line" d="M407.952609 0.000000 v514.000000" /><text class="" x="407.9526092" y="529.0">140…</text><title>140.0</title></g><g class="guides"><path class="guide line" d="M436.286587 0.000000 v514.000000" /><text class="" x="436.28658678" y="529.0">150…</text><title>150.0</title></g><g class="guides"><path class="guide line" d="M464.620564 0.000000 v514.000000" /><text class="" x="464.62056436" y="529.0">160…</text><title>160.0</title></g><g class="guides"><path class="guide line" d="M492.954542 0.000000 v514.000000" /><text class="" x="492.95454194" y="529.0">170…</text><title>170.0</title></g><g class="guides"><path class="guide line" d="M521.288520 0.000000 v514.000000" /><text class="" x="521.288519521" y="529.0">180…</text><title>180.0</title></g><g class="guides"><path class="guide line" d="M549.622497 0.000000 v514.000000" /><text class="" x="549.622497101" y="529.0">190…</text><title>190.0</title></g></g><g class="series serie-0 color-0"><path class="line reactive nofill" d="M11.276923 9.884615 L14.110321 156.158963 16.943719 421.817186 19.777116 492.363549 22.610514 284.282736 25.443912 43.908280 28.277310 55.804084 31.110707 305.887470 33.944105 498.100753 36.777503 404.894952 39.610901 136.610439 42.444298 10.852045 45.277696 176.497069 48.111094 437.448988 50.944492 484.783560 53.777889 262.464419 56.611287 33.680941 59.444685 69.275215 62.278083 327.109462 65.111480 501.950251 67.944878 386.814782 70.778276 118.004555 73.611674 13.746760 76.445072 197.465515 79.278469 451.667967 82.111867 475.420133 84.945265 240.603347 87.778663 25.202145 90.612060 84.216197 93.445458 347.782552 96.278856 503.881903 99.112254 367.718238 101.945651 100.486989 104.779049 18.546095 107.612447 218.900127 110.445845 464.362793 113.279242 464.346583 116.112640 218.870687 118.946038 18.538277 121.779436 100.510048 124.612833 367.744876 127.446231 503.880584 130.279629 347.754838 133.113027 84.194896 135.946424 25.212474 138.779822 240.633079 141.613220 475.434070 144.446618 451.649610 147.280015 197.436596 150.113413 13.741514 152.946811 118.029193 155.780209 386.840136 158.613606 501.946306 161.447004 327.080889 164.280402 69.255839 167.113800 33.693700 169.947198 262.494208 172.780595 484.795113 175.613993 437.428628 178.447391 176.468898 181.280789 10.849413 184.114186 136.636462 186.947584 404.918823 189.780982 498.094213 192.614380 305.858261 195.447777 55.786785 198.281175 43.923369 201.114573 284.312351 203.947971 492.372630 206.781368 421.794983 209.614766 156.131761 212.448164 9.884617 215.281562 156.186167 218.114959 421.839387 220.948357 492.354465 223.781755 284.253121 226.615153 43.893193 229.448550 55.821386 232.281948 305.916678 235.115346 498.107289 237.948744 404.871079 240.782141 136.584419 243.615539 10.854681 246.448937 176.525241 249.282335 437.469345 252.115733 484.772002 254.949130 262.434629 257.782528 33.668185 260.615926 69.294594 263.449324 327.138035 266.282721 501.954192 269.116119 386.789427 271.949517 117.979920 274.782915 13.752009 277.616312 197.494435 280.449710 451.686321 283.283108 475.406194 286.116506 240.573616 288.949903 25.191819 291.783301 84.237501 294.616699 347.810265 297.450097 503.883217 300.283494 367.691598 303.116892 100.463931 305.950290 18.553917 308.783688 218.929568 311.617085 464.379000 314.450483 464.330370 317.283881 218.841247 320.117279 18.530463 322.950676 100.533110 325.784074 367.771513 328.617472 503.879263 331.450870 347.727122 334.284267 84.173597 337.117665 25.222806 339.951063 240.662811 342.784461 475.448003 345.617859 451.631251 348.451256 197.407679 351.284654 13.736272 354.118052 118.053832 356.951450 386.865488 359.784847 501.942358 362.618245 327.052315 365.451643 69.236466 368.285041 33.706463 371.118438 262.523998 373.951836 484.806664 376.785234 437.408266 379.618632 176.440728 382.452029 10.846784 385.285427 136.662486 388.118825 404.942692 390.952223 498.087669 393.785620 305.829052 396.619018 55.769489 399.452416 43.938462 402.285814 284.341965 405.119211 492.381707 407.952609 421.772777 410.786007 156.104560 413.619405 9.884623 416.452802 156.213372 419.286200 421.861586 422.119598 492.345377 424.952996 284.223506 427.786394 43.878109 430.619791 55.838691 433.453189 305.945885 436.286587 498.113822 439.119985 404.847204 441.953382 136.558400 444.786780 10.857320 447.620178 176.553414 450.453576 437.489700 453.286973 484.760442 456.120371 262.404839 458.953769 33.655432 461.787167 69.313975 464.620564 327.166606 467.453962 501.958129 470.287360 386.764069 473.120758 117.955286 475.954155 13.757262 478.787553 197.523356 481.620951 451.704672 484.454349 475.392251 487.287746 240.543885 490.121144 25.181497 492.954542 84.258807 495.787940 347.837977 498.621337 503.884529 501.454735 367.664956 504.288133 100.440876 507.121531 18.561742 509.954928 218.959010 512.788326 464.395205 515.621724 464.314154 518.455122 218.811808 521.288520 18.522652 524.121917 100.556174 526.955315 367.798148 529.788713 503.877937 532.622111 347.699405 535.455508 84.152301 538.288906 25.233142 541.122304 240.692542 543.955702 475.461934 546.789099 451.612888 549.622497 197.378761 552.455895 13.731034 555.289293 118.078474 558.122690 386.890838 560.956088 501.938406 563.789486 327.023739 566.622884 69.217095 569.456281 33.719229 572.289679 262.553788 575.123077 484.818211" /></g><g class="series serie-1 color-1"><path class="line reactive nofill" d="M11.276923 9.884615 L14.110321 11.119183 16.943719 14.810549 19.777116 20.921831 22.610514 29.391967 25.443912 40.136327 28.277310 53.047556 31.110707 67.996650 33.944105 84.834242 36.777503 103.392096 39.610901 123.484789 42.444298 144.911561 45.277696 167.458322 48.111094 190.899794 50.944492 215.001756 53.777889 239.523390 56.611287 264.219683 59.444685 288.843879 62.278083 313.149941 65.111480 336.895010 67.944878 359.841834 70.778276 381.761135 73.611674 402.433903 76.445072 421.653583 79.278469 439.228138 82.111867 454.981969 84.945265 468.757669 87.778663 480.417595 90.612060 489.845245 93.445458 496.946422 96.278856 501.650173 99.112254 503.909499 101.945651 503.701826 104.779049 501.029229 107.612447 495.918412 110.445845 488.420441 113.279242 478.610232 116.112640 466.585806 118.946038 452.467307 121.779436 436.395802 124.612833 418.531873 127.446231 399.054010 130.279629 378.156830 133.113027 356.049129 135.946424 332.951802 138.779822 309.095629 141.613220 284.718972 144.446618 260.065396 147.280015 235.381230 150.113413 210.913111 152.946811 186.905516 155.780209 163.598322 158.613606 141.224405 161.447004 120.007319 164.280402 100.159057 167.113800 81.877937 169.947198 65.346619 172.780595 50.730277 175.613993 38.174952 178.447391 27.806095 181.280789 19.727306 184.114186 14.019307 186.947584 10.739130 189.780982 9.919549 192.614380 11.568754 195.447777 15.670265 198.281175 22.183103 201.114573 31.042192 203.947971 42.159016 206.781368 55.422500 209.614766 70.700119 212.448164 87.839223 215.281562 106.668565 218.114959 127.000009 220.948357 148.630408 223.781755 171.343640 226.615153 194.912761 229.448550 219.102276 232.281948 243.670492 235.115346 268.371931 237.948744 292.959784 240.782141 317.188379 243.615539 340.815630 246.448937 363.605463 249.282335 385.330168 252.115733 405.772679 254.949130 424.728742 257.782528 442.008954 260.615926 457.440657 263.449324 470.869663 266.282721 482.161792 269.116119 491.204219 271.949517 497.906593 274.782915 502.201948 277.616312 504.047365 280.449710 503.424405 283.283108 500.339294 286.116506 494.822855 288.949903 486.930209 291.783301 476.740215 294.616699 464.354688 297.450097 449.897382 300.283494 433.512747 303.116892 415.364495 305.950290 395.633956 308.783688 374.518272 311.617085 352.228423 314.450483 328.987122 317.283881 305.026589 320.117279 280.586229 322.950676 255.910242 325.784074 231.245183 328.617472 206.837497 331.450870 182.931058 334.284267 159.764729 337.117665 137.569983 339.951063 116.568581 342.784461 96.970362 345.617859 78.971146 348.451256 62.750775 351.284654 48.471316 354.118052 36.275447 356.951450 26.285023 359.784847 18.599866 362.618245 13.296764 365.451643 10.428703 368.285041 10.024340 371.118438 12.087716 373.951836 16.598213 376.785234 23.510764 379.618632 32.756302 382.452029 44.242448 385.285427 57.854436 388.118825 73.456260 390.952223 90.892032 393.785620 109.987538 396.619018 130.551984 399.452416 152.379896 402.285814 175.253176 405.119211 198.943282 407.952609 223.213512 410.786007 247.821364 413.619405 272.520964 416.452802 297.065524 419.286200 321.209801 422.119598 344.712555 424.952996 367.338953 427.786394 388.862919 430.619791 409.069394 433.453189 427.756481 436.286587 444.737465 439.119985 459.842677 441.953382 472.921191 444.786780 483.842332 447.620178 492.496978 450.453576 498.798655 453.286973 502.684399 456.120371 504.115385 458.953769 503.077314 461.787167 499.580560 464.620564 493.660060 467.453962 485.374970 470.287360 474.808073 473.120758 462.064948 475.954155 447.272920 478.787553 430.579788 481.620951 412.152344 484.454349 392.174707 487.287746 370.846489 490.121144 348.380793 492.954542 325.002090 495.787940 300.943971 498.621337 276.446818 501.454735 251.755398 504.288133 227.116420 507.121531 202.776067 509.954928 178.977541 512.788326 155.958629 515.621724 133.949328 518.455122 113.169548 521.288520 93.826913 524.121917 76.114689 526.955315 60.209851 529.788713 46.271313 532.622111 34.438347 535.455508 24.829181 538.288906 17.539829 541.122304 12.643123 543.955702 10.187990 546.789099 10.198959 549.622497 12.675922 552.455895 17.594130 555.289293 24.904441 558.122690 34.533813 560.956088 46.386033 563.789486 60.342678 566.622884 76.264296 569.456281 93.991805 572.289679 113.348077 575.123077 134.139711" /></g></g><g class="titles"><text class="title plot_title" x="400.0" y="26">Carrier and Modulating Signal</text></g><g class="plot overlay" transform="translate(193, 46)"><g class="series serie-0 color-0" /><g class="series serie-1 color-1" /></g><g class="plot text-overlay" transform="translate(193, 46)"><g class="series serie-0 color-0" /><g class="series serie-1 color-1" /></g><g class="plot tooltip-overlay" transform="translate(193, 46)"><g class="tooltip" style="opacity: 0" transform="translate(0 0)"><a><rect class="tooltip-box" height="0" rx="0" ry="0" width="0" /><text class="text"><tspan class="label" /><tspan class="value" /></text></a></g></g><g class="legends" transform="translate(10, 56)"><g class="legend reactive activate-serie" id="activate-serie-0"><rect class="color-0 reactive" height="12" width="12" x="0.0" y="1.0" /><text x="17.0" y="11.2">Carrier Signal</text></g><g class="legend reactive activate-serie" id="activate-serie-1"><rect class="color-1 reactive" height="12" width="12" x="0.0" y="22.0" /><text x="17.0" y="32.2">Message Signal</text></g></g><g class="legends" transform="translate(790, 56)" /></g></svg>