<?xml version='1.0' encoding='utf-8'?>
<svg xmlns:xlink="http://www.w3.org/1999/xlink" class="pygal-chart" id="chart-0382bd23-91dc-4ecd-ac6b-a81b0f6dcd2e" viewBox="0 0 800 600" xmlns="http://www.w3.org/2000/svg"><!--Generated with pygal 1.7.0 (etree) ©Kozea 2011-2014 on 2015-04-28--><!--http://pygal.org--><!--http://github.com/Kozea/pygal--><defs><style type="text/css">#chart-0382bd23-91dc-4ecd-ac6b-a81b0f6dcd2e .title{font-family:"monospace";font-size:16px}#chart-0382bd23-91dc-4ecd-ac6b-a81b0f6dcd2e .legends .legend text{font-family:"monospace";font-size:14px}#chart-0382bd23-91dc-4ecd-ac6b-a81b0f6dcd2e .axis text{font-family:"monospace";font-size:10px}#chart-0382bd23-91dc-4ecd-ac6b-a81b0f6dcd2e .axis text.major{font-family:"monospace";font-size:10px}#chart-0382bd23-91dc-4ecd-ac6b-a81b0f6dcd2e .series text{font-family:"monospace";font-size:8px}#chart-0382bd23-91dc-4ecd-ac6b-a81b0f6dcd2e .tooltip text{font-family:"monospace";font-size:16px}#chart-0382bd23-91dc-4ecd-ac6b-a81b0f6dcd2e text.no_data{font-size:64px}
#chart-0382bd23-91dc-4ecd-ac6b-a81b0f6dcd2e{background-color:black}#chart-0382bd23-91dc-4ecd-ac6b-a81b0f6dcd2e path,#chart-0382bd23-91dc-4ecd-ac6b-a81b0f6dcd2e line,#chart-0382bd23-91dc-4ecd-ac6b-a81b0f6dcd2e rect,#chart-0382bd23-91dc-4ecd-ac6b-a81b0f6dcd2e circle{-webkit-transition:250ms;-moz-transition:250ms;transition:250ms}#chart-0382bd23-91dc-4ecd-ac6b-a81b0f6dcd2e .graph &gt; .background{fill:black}#chart-0382bd23-91dc-4ecd-ac6b-a81b0f6dcd2e .plot &gt; .background{fill:#111}#chart-0382bd23-91dc-4ecd-ac6b-a81b0f6dcd2e .graph{fill:#999}#chart-0382bd23-91dc-4ecd-ac6b-a81b0f6dcd2e text.no_data{fill:#eee}#chart-0382bd23-91dc-4ecd-ac6b-a81b0f6dcd2e .title{fill:#eee}#chart-0382bd23-91dc-4ecd-ac6b-a81b0f6dcd2e .legends .legend text{fill:#999}#chart-0382bd23-91dc-4ecd-ac6b-a81b0f6dcd2e .legends .legend:hover text{fill:#eee}#chart-0382bd23-91dc-4ecd-ac6b-a81b0f6dcd2e .axis .line{stroke:#eee}#chart-0382bd23-91dc-4ecd-ac6b-a81b0f6dcd2e .axis .guide.line{stroke:#555}#chart-0382bd23-91dc-4ecd-ac6b-a81b0f6dcd2e .axis .major.line{stroke:#999}#chart-0382bd23-91dc-4ecd-ac6b-a81b0f6dcd2e .axis text.major{stroke:#eee;fill:#eee}#chart-0382bd23-91dc-4ecd-ac6b-a81b0f6dcd2e .axis.y .guides:hover .guide.line,#chart-0382bd23-91dc-4ecd-ac6b-a81b0f6dcd2e .line-graph .axis.x .guides:hover .guide.line,#chart-0382bd23-91dc-4ecd-ac6b-a81b0f6dcd2e .stackedline-graph .axis.x .guides:hover .guide.line,#chart-0382bd23-91dc-4ecd-ac6b-a81b0f6dcd2e .xy-graph .axis.x .guides:hover .guide.line{stroke:#eee}#chart-0382bd23-91dc-4ecd-ac6b-a81b0f6dcd2e .axis .guides:hover text{fill:#eee}#chart-0382bd23-91dc-4ecd-ac6b-a81b0f6dcd2e .reactive{fill-opacity:.8}#chart-0382bd23-91dc-4ecd-ac6b-a81b0f6dcd2e .reactive.active,#chart-0382bd23-91dc-4ecd-ac6b-a81b0f6dcd2e .active .reactive{fill-opacity:.4}#chart-0382bd23-91dc-4ecd-ac6b-a81b0f6dcd2e .series{stroke-width:1.0;stroke-linejoin:round;stroke-linecap:round;stroke-dasharray:0,0}#chart-0382bd23-91dc-4ecd-ac6b-a81b0f6dcd2e .series text{fill:#eee}#chart-0382bd23-91dc-4ecd-ac6b-a81b0f6dcd2e .tooltip rect{fill:#111;stroke:#eee}#chart-0382bd23-91dc-4ecd-ac6b-a81b0f6dcd2e .tooltip text{fill:#eee}#chart-0382bd23-91dc-4ecd-ac6b-a81b0f6dcd2e .map-element{fill:#999;stroke:#555 !important;opacity:.9;stroke-width:3;-webkit-transition:250ms;-moz-transition:250ms;-o-transition:250ms;transition:250ms}#chart-0382bd23-91dc-4ecd-ac6b-a81b0f6dcd2e .map-element:hover{opacity:1;stroke-width:10}#chart-0382bd23-91dc-4ecd-ac6b-a81b0f6dcd2e .color-0,#chart-0382bd23-91dc-4ecd-ac6b-a81b0f6dcd2e .color-0 a:visited{stroke:#ff5995;fill:#ff5995}#chart-0382bd23-91dc-4ecd-ac6b-a81b0f6dcd2e .color-1,#chart-0382bd23-91dc-4ecd-ac6b-a81b0f6dcd2e .color-1 a:visited{stroke:#b6e354;fill:#b6e354}#chart-0382bd23-91dc-4ecd-ac6b-a81b0f6dcd2e .color-2,#chart-0382bd23-91dc-4ecd-ac6b-a81b0f6dcd2e .color-2 a:visited{stroke:#feed6c;fill:#feed6c}#chart-0382bd23-91dc-4ecd-ac6b-a81b0f6dcd2e .color-3,#chart-0382bd23-91dc-4ecd-ac6b-a81b0f6dcd2e .color-3 a:visited{stroke:#8cedff;fill:#8cedff}#chart-0382bd23-91dc-4ecd-ac6b-a81b0f6dcd2e .color-4,#chart-0382bd23-91dc-4ecd-ac6b-a81b0f6dcd2e .color-4 a:visited{stroke:#9e6ffe;fill:#9e6ffe}#chart-0382bd23-91dc-4ecd-ac6b-a81b0f6dcd2e .color-5,#chart-0382bd23-91dc-4ecd-ac6b-a81b0f6dcd2e .color-5 a:visited{stroke:#899ca1;fill:#899ca1}#chart-0382bd23-91dc-4ecd-ac6b-a81b0f6dcd2e .color-6,#chart-0382bd23-91dc-4ecd-ac6b-a81b0f6dcd2e .color-6 a:visited{stroke:#f8f8f2;fill:#f8f8f2}#chart-0382bd23-91dc-4ecd-ac6b-a81b0f6dcd2e .color-7,#chart-0382bd23-91dc-4ecd-ac6b-a81b0f6dcd2e .color-7 a:visited{stroke:#bf4646;fill:#bf4646}#chart-0382bd23-91dc-4ecd-ac6b-a81b0f6dcd2e .color-8,#chart-0382bd23-91dc-4ecd-ac6b-a81b0f6dcd2e .color-8 a:visited{stroke:#516083;fill:#516083}#chart-0382bd23-91dc-4ecd-ac6b-a81b0f6dcd2e .color-9,#chart-0382bd23-91dc-4ecd-ac6b-a81b0f6dcd2e .color-9 a:visited{stroke:#f92672;fill:#f92672}#chart-0382bd23-91dc-4ecd-ac6b-a81b0f6dcd2e .color-10,#chart-0382bd23-91dc-4ecd-ac6b-a81b0f6dcd2e .color-10 a:visited{stroke:#82b414;fill:#82b414}#chart-0382bd23-91dc-4ecd-ac6b-a81b0f6dcd2e .color-11,#chart-0382bd23-91dc-4ecd-ac6b-a81b0f6dcd2e .color-11 a:visited{stroke:#fd971f;fill:#fd971f}#chart-0382bd23-91dc-4ecd-ac6b-a81b0f6dcd2e .color-12,#chart-0382bd23-91dc-4ecd-ac6b-a81b0f6dcd2e .color-12 a:visited{stroke:#56c2d6;fill:#56c2d6}#chart-0382bd23-91dc-4ecd-ac6b-a81b0f6dcd2e .color-13,#chart-0382bd23-91dc-4ecd-ac6b-a81b0f6dcd2e .color-13 a:visited{stroke:#808384;fill:#808384}#chart-0382bd23-91dc-4ecd-ac6b-a81b0f6dcd2e .color-14,#chart-0382bd23-91dc-4ecd-ac6b-a81b0f6dcd2e .color-14 a:visited{stroke:#8c54fe;fill:#8c54fe}#chart-0382bd23-91dc-4ecd-ac6b-a81b0f6dcd2e .color-15,#chart-0382bd23-91dc-4ecd-ac6b-a81b0f6dcd2e .color-15 a:visited{stroke:#465457;fill:#465457}
#chart-0382bd23-91dc-4ecd-ac6b-a81b0f6dcd2e text.no_data{text-anchor:middle}#chart-0382bd23-91dc-4ecd-ac6b-a81b0f6dcd2e .guide.line{fill-opacity:0}#chart-0382bd23-91dc-4ecd-ac6b-a81b0f6dcd2e .centered{text-anchor:middle}#chart-0382bd23-91dc-4ecd-ac6b-a81b0f6dcd2e .title{text-anchor:middle}#chart-0382bd23-91dc-4ecd-ac6b-a81b0f6dcd2e .legends .legend text{fill-opacity:1}#chart-0382bd23-91dc-4ecd-ac6b-a81b0f6dcd2e .axis.x text{text-anchor:middle}#chart-0382bd23-91dc-4ecd-ac6b-a81b0f6dcd2e .axis.x:not(.web) text[transform]{text-anchor:start}#chart-0382bd23-91dc-4ecd-ac6b-a81b0f6dcd2e .axis.y text{text-anchor:end}#chart-0382bd23-91dc-4ecd-ac6b-a81b0f6dcd2e .axis.y2 text{text-anchor:start}#chart-0382bd23-91dc-4ecd-ac6b-a81b0f6dcd2e .axis.y .logarithmic text:not(.major),#chart-0382bd23-91dc-4ecd-ac6b-a81b0f6dcd2e .axis.y2 .logarithmic text:not(.major){font-size:50%}#chart-0382bd23-91dc-4ecd-ac6b-a81b0f6dcd2e .axis .guide.line{stroke-dasharray:4,4}#chart-0382bd23-91dc-4ecd-ac6b-a81b0f6dcd2e .axis .major.guide.line{stroke-dasharray:6,6}#chart-0382bd23-91dc-4ecd-ac6b-a81b0f6dcd2e .axis text.major{stroke-width:0.5px}#chart-0382bd23-91dc-4ecd-ac6b-a81b0f6dcd2e .horizontal .axis.y .guide.line,#chart-0382bd23-91dc-4ecd-ac6b-a81b0f6dcd2e .horizontal .axis.y2 .guide.line,#chart-0382bd23-91dc-4ecd-ac6b-a81b0f6dcd2e .vertical .axis.x .guide.line{opacity:0}#chart-0382bd23-91dc-4ecd-ac6b-a81b0f6dcd2e .horizontal .axis.always_show .guide.line,#chart-0382bd23-91dc-4ecd-ac6b-a81b0f6dcd2e .vertical .axis.always_show .guide.line{opacity:1 !important}#chart-0382bd23-91dc-4ecd-ac6b-a81b0f6dcd2e .axis.y .guides:hover .guide.line,#chart-0382bd23-91dc-4ecd-ac6b-a81b0f6dcd2e .axis.y2 .guides:hover .guide.line,#chart-0382bd23-91dc-4ecd-ac6b-a81b0f6dcd2e .axis.x .guides:hover .guide.line{opacity:1}#chart-0382bd23-91dc-4ecd-ac6b-a81b0f6dcd2e .axis .guides:hover text{opacity:1}#chart-0382bd23-91dc-4ecd-ac6b-a81b0f6dcd2e .nofill{fill:none}#chart-0382bd23-91dc-4ecd-ac6b-a81b0f6dcd2e .subtle-fill{fill-opacity:.2}#chart-0382bd23-91dc-4ecd-ac6b-a81b0f6dcd2e .dot{stroke-width:1px;fill-opacity:1}#chart-0382bd23-91dc-4ecd-ac6b-a81b0f6dcd2e .dot.active{stroke-width:5px}#chart-0382bd23-91dc-4ecd-ac6b-a81b0f6dcd2e .series text{stroke:none}#chart-0382bd23-91dc-4ecd-ac6b-a81b0f6dcd2e .series text.active{opacity:1}#chart-0382bd23-91dc-4ecd-ac6b-a81b0f6dcd2e .tooltip rect{fill-opacity:0.8}#chart-0382bd23-91dc-4ecd-ac6b-a81b0f6dcd2e .tooltip text{fill-opacity:1}#chart-0382bd23-91dc-4ecd-ac6b-a81b0f6dcd2e .tooltip text tspan.label{fill-opacity:.8}</style><script type="text/javascript">window.config = {"inner_radius": 0, "print_values": false, "tooltip_font_size": 16, "xrange": null, "legend_at_bottom_columns": null, "height": 600, "legend_at_bottom": false, "show_legend": true, "show_dots": false, "explicit_size": false, "legend_font_size": 14, "y_labels_major": null, "show_minor_x_labels": true, "major_label_font_size": 10, "fill": false, "half_pie": false, "x_value_formatter": null, "style": {"opacity": ".8", "foreground": "#999", "plot_background": "#111", "stroke_style": "round", "foreground_light": "#eee", "transition": "250ms", "foreground_dark": "#555", "stroke_dasharray": "0,0", "opacity_hover": ".4", "stroke_width": 1.0, "colors": ["#ff5995", "#b6e354", "#feed6c", "#8cedff", "#9e6ffe", "#899ca1", "#f8f8f2", "#bf4646", "#516083", "#f92672", "#82b414", "#fd971f", "#56c2d6", "#808384", "#8c54fe", "#465457"], "background": "black", "font_family": "monospace"}, "x_label_rotation": 0, "missing_value_fill_truncation": "x", "zero": 0, "margin_right": null, "interpolation_parameters": {}, "x_labels_major": null, "rounded_bars": null, "label_font_size": 10, "show_y_labels": false, "dots_size": 2.5, "show_y_guides": true, "show_minor_y_labels": true, "x_labels": null, "y_title": null, "value_font_size": 8, "order_min": null, "disable_xml_declaration": false, "strict": false, "css": ["style.css", "graph.css"], "mode": null, "show_only_major_dots": false, "y_label_rotation": 0, "human_readable": false, "show_x_guides": false, "spacing": 10, "x_labels_major_count": null, "pretty_print": false, "tooltip_border_radius": 0, "interpolate": null, "js": ["http://kozea.github.io/pygal.js/javascripts/svg.jquery.js", "http://kozea.github.io/pygal.js/javascripts/pygal-tooltips.js"], "y_labels": null, "y_labels_major_every": null, "x_label_format": "%Y-%m-%d %H:%M:%S.%f", "interpolation_precision": 250, "x_title": null, "value_formatter": null, "no_data_font_size": 64, "logarithmic": false, "width": 800, "print_zeroes": false, "no_data_text": "No data", "truncate_legend": null, "x_labels_major_every": null, "title": "Carrier and Modulating Signal", "legend_box_size": 12, "no_prefix": false, "stroke": true, "title_font_size": 16, "include_x_axis": false, "range": null, "truncate_label": null, "margin_top": null, "margin_left": null, "y_labels_major_count": null, "margin_bottom": null, "margin": 20, "stack_from_top": false, "show_x_labels": true}</script><script type="text/javascript" xlink:href="http://kozea.github.io/pygal.js/javascripts/svg.jquery.js" /><script type="text/javascript" xlink:href="http://kozea.github.io/pygal.js/javascripts/pygal-tooltips.js" /></defs><title>Carrier and Modulating Signal</title><g class="graph xy-graph vertical"><rect class="background" height="600" width="800" x="0" y="0" /><g class="plot" transform="translate(159, 46)"><rect class="background" height="514" width="620.4" x="0" y="0" /><g class="axis x"><g class="guides"><path class="line" d="M11.930769 0.000000 v514.000000" /><text class="" x="11.9307692308" y="529.0">0.0</text></g><g class="guides"><path class="guide line" d="M41.907576 0.000000 v514.000000" /><text class="" x="41.9075763433" y="529.0">10.0</text></g><g class="guides"><path class="guide line" d="M71.884383 0.000000 v514.000000" /><text class="" x="71.8843834557" y="529.0">20.0</text></g><g class="guides"><path class="guide line" d="M101.861191 0.000000 v514.000000" /><text class="" x="101.861190568" y="529.0">30.0</text></g><g class="guides"><path class="guide line" d="M131.837998 0.000000 v514.000000" /><text class="" x="131.837997681" y="529.0">40.0</text></g><g class="guides"><path class="guide line" d="M161.814805 0.000000 v514.000000" /><text class="" x="161.814804793" y="529.0">50.0</text></g><g class="guides"><path class="guide line" d="M191.791612 0.000000 v514.000000" /><text class="" x="191.791611906" y="529.0">60.0</text></g><g class="guides"><path class="guide line" d="M221.768419 0.000000 v514.000000" /><text class="" x="221.768419018" y="529.0">70.0</text></g><g class="guides"><path class="guide line" d="M251.745226 0.000000 v514.000000" /><text class="" x="251.745226131" y="529.0">80.0</text></g><g class="guides"><path class="guide line" d="M281.722033 0.000000 v514.000000" /><text class="" x="281.722033243" y="529.0">90.0</text></g><g class="guides"><path class="guide line" d="M311.698840 0.000000 v514.000000" /><text class="" x="311.698840356" y="529.0">100…</text><title>100.0</title></g><g class="guides"><path class="guide line" d="M341.675647 0.000000 v514.000000" /><text class="" x="341.675647468" y="529.0">110…</text><title>110.0</title></g><g class="guides"><path class="guide line" d="M371.652455 0.000000 v514.000000" /><text class="" x="371.652454581" y="529.0">120…</text><title>120.0</title></g><g class="guides"><path class="guide line" d="M401.629262 0.000000 v514.000000" /><text class="" x="401.629261693" y="529.0">130…</text><title>130.0</title></g><g class="guides"><path class="guide line" d="M431.606069 0.000000 v514.000000" /><text class="" x="431.606068806" y="529.0">140…</text><title>140.0</title></g><g class="guides"><path class="guide line" d="M461.582876 0.000000 v514.000000" /><text class="" x="461.582875918" y="529.0">150…</text><title>150.0</title></g><g class="guides"><path class="guide line" d="M491.559683 0.000000 v514.000000" /><text class="" x="491.559683031" y="529.0">160…</text><title>160.0</title></g><g class="guides"><path class="guide line" d="M521.536490 0.000000 v514.000000" /><text class="" x="521.536490143" y="529.0">170…</text><title>170.0</title></g><g class="guides"><path class="guide line" d="M551.513297 0.000000 v514.000000" /><text class="" x="551.513297256" y="529.0">180…</text><title>180.0</title></g><g class="guides"><path class="guide line" d="M581.490104 0.000000 v514.000000" /><text class="" x="581.490104368" y="529.0">190…</text><title>190.0</title></g></g><g class="series serie-0 color-0"><path class="line reactive nofill" d="M11.930769 428.110956 L14.928450 450.616017 17.926131 491.488902 20.923811 502.342823 23.921492 470.328519 26.919173 433.345672 29.916853 435.175902 32.914534 473.652518 35.912215 503.225521 38.909896 488.885329 41.907576 447.608376 44.905257 428.259800 47.902938 453.745139 50.900618 493.893935 53.898299 501.176602 56.895980 466.971658 59.893661 431.772143 62.891341 437.248505 65.889022 476.917631 68.886703 503.817786 71.884383 486.103602 74.882064 444.745765 77.879745 428.705167 80.877426 456.971243 83.875106 496.081598 86.872787 499.735991 89.870468 463.608220 92.868148 430.467636 95.865829 439.547252 98.863510 480.098292 101.861191 504.114981 104.858871 483.165500 107.856552 442.050597 110.854233 429.443569 113.851913 460.269068 116.849594 498.034762 119.847275 498.032268 122.844956 460.264538 125.842636 429.442366 128.840317 442.054145 131.837998 483.169598 134.835678 504.114778 137.833359 480.094028 140.831040 439.543975 143.828721 430.469226 146.826401 463.612794 149.824082 499.738135 152.821763 496.078774 155.819443 456.966793 158.817124 428.704359 161.814805 444.749555 164.812486 486.107503 167.810166 503.817179 170.807847 476.913235 173.805528 437.245524 176.803208 431.774106 179.800889 466.976242 182.798570 501.178380 185.796250 493.890802 188.793931 453.740805 191.791612 428.259395 194.789293 447.612380 197.786973 488.889002 200.784654 503.224515 203.782335 473.648024 206.780015 435.173241 209.777696 433.347993 212.775377 470.333075 215.773058 502.344220 218.770738 491.485486 221.768419 450.611832 224.766100 428.110956 227.763780 450.620202 230.761461 491.492317 233.759142 502.341425 236.756823 470.323962 239.754503 433.343350 242.752184 435.178564 245.749865 473.657012 248.747545 503.226527 251.745226 488.881656 254.742907 447.604372 257.740588 428.260205 260.738268 453.749474 263.735949 493.897067 266.733630 501.174824 269.731310 466.967075 272.728991 431.770180 275.726672 437.251487 278.724353 476.922027 281.722033 503.818392 284.719714 486.099701 287.717395 444.741975 290.715075 428.705974 293.712756 456.975692 296.710437 496.084422 299.708118 499.733846 302.705798 463.603646 305.703479 430.466048 308.701160 439.550530 311.698840 480.102556 314.696521 504.115183 317.694202 483.161401 320.691882 442.047050 323.689563 429.444772 326.687244 460.273598 329.684925 498.037256 332.682605 498.029774 335.680286 460.260009 338.677967 429.441164 341.675647 442.057693 344.673328 483.173697 347.671009 504.114574 350.668690 480.089764 353.666370 439.540698 356.664051 430.470815 359.661732 463.617369 362.659412 499.740279 365.657093 496.075949 368.654774 456.962344 371.652455 428.703553 374.650135 444.753346 377.647816 486.111403 380.645497 503.816572 383.643177 476.908838 386.640858 437.242543 389.638539 431.776070 392.636220 466.980825 395.633900 501.180157 398.631581 493.887670 401.629262 453.736471 404.626942 428.258990 407.624623 447.616384 410.622304 488.892674 413.619985 503.223508 416.617665 473.643530 419.615346 435.170580 422.613027 433.350315 425.610707 470.337631 428.608388 502.345616 431.606069 491.482069 434.603750 450.607647 437.601430 428.110957 440.599111 450.624388 443.596792 491.495733 446.594472 502.340027 449.592153 470.319406 452.589834 433.341030 455.587514 435.181227 458.585195 473.661506 461.582876 503.227532 464.580557 488.877983 467.578237 447.600369 470.575918 428.260611 473.573599 453.753808 476.571279 493.900199 479.568960 501.173045 482.566641 466.962492 485.564322 431.768218 488.562002 437.254469 491.559683 476.926423 494.557364 503.818998 497.555044 486.095799 500.552725 444.738185 503.550406 428.706782 506.548087 456.980142 509.545767 496.087245 512.543448 499.731701 515.541129 463.599071 518.538809 430.464460 521.536490 439.553808 524.534171 480.106820 527.531852 504.115385 530.529532 483.157302 533.527213 442.043502 536.524894 429.445976 539.522574 460.278127 542.520255 498.039749 545.517936 498.027279 548.515617 460.255479 551.513297 429.439962 554.510978 442.061242 557.508659 483.177795 560.506339 504.114370 563.504020 480.085500 566.501701 439.537421 569.499382 430.472406 572.497062 463.621943 575.494743 499.742422 578.492424 496.073124 581.490104 456.957895 584.487785 428.702747 587.485466 444.757138 590.483147 486.115303 593.480827 503.815964 596.478508 476.904442 599.476189 437.239563 602.473869 431.778034 605.471550 466.985408 608.469231 501.181934" /></g><g class="series serie-1 color-1"><path class="line reactive nofill" d="M11.930769 238.008074 L14.928450 238.198018 17.926131 238.765954 20.923811 239.706206 23.921492 241.009380 26.919173 242.662455 29.916853 244.648914 32.914534 246.948909 35.912215 249.539459 38.909896 252.394681 41.907576 255.486045 44.905257 258.782664 47.902938 262.251599 50.900618 265.858190 53.898299 269.566401 56.895980 273.339181 59.893661 277.138833 62.891341 280.927392 65.889022 284.667005 68.886703 288.320306 71.884383 291.850793 74.882064 295.223190 77.879745 298.403802 80.877426 301.360849 83.875106 304.064784 86.872787 306.488592 89.870468 308.608054 92.868148 310.401994 95.865829 311.852487 98.863510 312.945039 101.861191 313.668735 104.858871 314.016344 107.856552 313.984393 110.854233 313.573200 113.851913 312.786875 116.849594 311.633273 119.847275 310.123922 122.844956 308.273902 125.842636 306.101698 128.840317 303.629015 131.837998 300.880557 134.835678 297.883788 137.833359 294.668649 140.831040 291.267266 143.828721 287.713623 146.826401 284.043228 149.824082 280.292754 152.821763 276.499674 155.819443 272.701888 158.817124 268.937342 161.814805 265.243650 164.812486 261.657719 167.810166 258.215376 170.807847 254.951018 173.805528 251.897261 176.803208 249.084617 179.800889 246.541188 182.798570 244.292389 185.796250 242.360688 188.793931 240.765386 191.791612 239.522422 194.789293 238.644217 197.786973 238.139545 200.784654 238.013448 203.782335 238.267187 206.780015 238.898226 209.777696 239.900259 212.775377 241.263276 215.773058 242.973656 218.770738 245.014312 221.768419 247.364852 224.766100 250.001791 227.763780 252.898783 230.761461 256.026880 233.759142 259.354828 236.756823 262.849376 239.754503 266.475606 242.752184 270.197288 245.749865 273.977234 248.747545 277.777677 251.745226 281.560645 254.742907 285.288339 257.740588 288.923513 260.738268 292.429846 263.735949 295.772304 266.733630 298.917490 269.731310 301.833978 272.728991 304.492627 275.726672 306.866874 278.724353 308.932996 281.722033 310.670348 284.719714 312.061572 287.717395 313.092767 290.715075 313.753629 293.712756 314.037556 296.710437 313.941710 299.708118 313.467050 302.705798 312.618318 305.703479 311.403993 308.701160 309.836210 311.698840 307.930633 314.696521 305.706302 317.694202 303.185442 320.691882 300.393240 323.689563 297.357595 326.687244 294.108838 329.684925 290.679430 332.682605 287.103637 335.680286 283.417185 338.677967 279.656910 341.675647 275.860383 344.673328 272.065536 347.671009 268.310288 350.668690 264.632159 353.666370 261.067901 356.664051 257.653125 359.661732 254.421951 362.659412 251.406664 365.657093 248.637392 368.654774 246.141804 371.652455 243.944836 374.650135 242.068439 377.647816 240.531361 380.645497 239.348960 383.643177 238.533050 386.640858 238.091784 389.638539 238.029571 392.636220 238.347032 395.633900 239.040995 398.631581 240.104527 401.629262 241.527000 404.626942 243.294203 407.624623 245.388478 410.622304 247.788898 413.619985 250.471482 416.617665 253.409424 419.615346 256.573369 422.613027 259.931706 425.610707 263.450878 428.608388 267.095723 431.606069 270.829822 434.603750 274.615867 437.601430 278.416028 440.599111 282.192334 443.596792 285.907056 446.594472 289.523075 449.592153 293.004263 452.589834 296.315836 455.587514 299.424706 458.585195 302.299811 461.582876 304.912422 464.580557 307.236437 467.578237 309.248634 470.575918 310.928908 473.573599 312.260469 476.571279 313.230015 479.568960 313.827856 482.566641 314.048021 485.564322 313.888309 488.562002 313.350315 491.559683 312.439416 494.557364 311.164712 497.555044 309.538940 500.552725 307.578345 503.550406 305.302515 506.548087 302.734191 509.545767 299.899034 512.543448 296.825372 515.541129 293.543916 518.538809 290.087453 521.536490 286.490519 524.534171 282.789054 527.531852 279.020040 530.529532 275.221138 533.527213 271.430305 536.524894 267.685416 539.522574 264.023891 542.520255 260.482313 545.517936 257.096068 548.515617 253.898992 551.513297 250.923028 554.510978 248.197911 557.508659 245.750870 560.506339 243.606355 563.504020 241.785792 566.501701 240.307372 569.499382 239.185868 572.497062 238.432484 575.494743 238.054749 578.492424 238.056437 581.490104 238.437531 584.487785 239.194222 587.485466 240.318951 590.483147 241.800480 593.480827 243.624005 596.478508 245.771306 599.476189 248.220929 602.473869 250.948398 605.471550 253.926460 608.469231 257.125360" /></g><g class="series serie-2 color-2"><path class="line reactive nofill" d="M11.930769 9.884615 L14.928450 54.972251 17.926131 136.135048 20.923811 156.731026 23.921492 93.988435 26.919173 24.367608 29.916853 29.421355 32.914534 99.199122 35.912215 148.863388 38.909896 122.823552 41.907576 57.394508 44.905257 30.875565 47.902938 69.051070 50.900618 121.114581 53.898299 126.927349 56.895980 86.825323 59.893661 52.569657 62.891341 60.764160 65.889022 94.261243 68.886703 111.428449 71.884383 97.586524 74.882064 75.336522 77.879745 70.524861 80.877426 82.868760 83.875106 93.790844 86.872787 92.608229 89.870468 85.564654 92.868148 82.504607 95.865829 84.389791 98.863510 86.331389 101.861191 86.305888 104.858871 85.940500 107.856552 85.884705 110.854233 85.466426 113.851913 85.731124 116.849594 87.953005 119.847275 89.219251 122.844956 85.034572 125.842636 78.256548 128.840317 79.326934 131.837998 91.827011 134.835678 102.075335 137.833359 93.042999 140.831040 69.994482 143.828721 61.223661 146.826401 83.937970 149.824082 115.763306 152.821763 115.502003 155.819443 75.959124 158.817124 41.517965 161.814805 58.478533 164.812486 113.452211 167.810166 141.267769 170.807847 102.684570 173.805528 38.706017 176.803208 27.220273 179.800889 87.425606 182.798570 150.226668 185.796250 138.266414 188.793931 62.042909 191.791612 11.689930 194.789293 49.197317 197.786973 131.362014 200.784654 160.106490 203.782335 100.907527 206.780015 24.733993 209.777696 21.990242 212.775377 93.969131 215.773058 153.621675 218.770738 131.961578 221.768419 58.705731 224.766100 21.878333 227.763780 60.978101 230.761461 124.628292 233.759142 138.015413 236.756823 91.571443 239.754503 44.899233 242.752184 50.225424 245.749865 93.857288 248.747545 121.314314 251.745226 105.365748 254.742907 71.910790 257.740588 60.898686 260.738268 78.885043 263.735949 99.272976 266.733630 99.872581 269.731310 86.194211 272.728991 77.288927 275.726672 80.470126 278.724353 87.377789 281.722033 89.274990 284.719714 86.969672 287.717395 85.387684 290.715075 85.634797 293.712756 85.922958 296.710437 86.010470 299.708118 86.440292 302.705798 85.830631 305.703479 83.444387 308.701160 82.980358 311.698840 88.174104 314.696521 94.260590 317.694202 90.791787 320.691882 77.275258 323.689563 69.819703 326.687244 82.853498 329.684925 105.536998 332.682605 108.532394 335.680286 81.195257 338.677967 52.736720 341.675647 61.745386 344.673328 104.744340 347.671009 131.619553 350.668690 104.067915 353.666370 48.871684 356.664051 33.030057 359.661732 81.982832 362.659412 141.299416 365.657093 137.443115 368.654774 69.548954 371.652455 16.914041 374.650135 45.452456 377.647816 124.559519 380.645497 159.966795 383.643177 107.331571 386.640858 28.211396 389.638539 17.234268 392.636220 87.616782 395.633900 155.070837 398.631581 139.907571 401.629262 62.282848 404.626942 15.446232 407.624623 52.489558 410.622304 125.592729 413.619985 147.950714 416.617665 97.906809 419.615346 39.121973 422.613027 39.265819 425.610707 91.523308 428.608388 130.648345 431.606069 114.742667 434.603750 69.825040 437.601430 50.292570 440.599111 72.932556 443.596792 104.699909 446.594472 109.282989 449.592153 88.243820 452.589834 70.631766 455.587514 74.020810 458.585195 88.252739 461.582876 94.840385 464.580557 90.001634 467.578237 83.585968 470.575918 82.817731 473.573599 85.343432 476.571279 86.524087 479.568960 86.129793 482.566641 85.925795 485.564322 85.780329 488.562002 85.394937 491.559683 86.382829 494.557364 88.785011 497.555044 88.294079 500.552725 82.284744 503.550406 77.316128 506.548087 83.202287 509.545767 97.074445 512.543448 101.147116 515.541129 84.559958 518.538809 63.447247 521.536490 66.661259 524.534171 97.416123 527.531852 120.921120 530.529532 103.313145 533.527213 58.924445 536.524894 41.189935 539.522574 78.224187 542.520255 130.881023 545.517936 133.704200 548.515617 76.629593 551.513297 25.006141 554.510978 44.236230 557.508659 116.546864 560.506339 156.298721 563.504020 112.447239 566.501701 34.345828 569.499382 15.712157 572.497062 80.934604 575.494743 153.106286 578.492424 145.770865 581.490104 67.682114 584.487785 12.235884 587.485466 44.476107 590.483147 123.900006 593.480827 155.728352 596.478508 105.271921 599.476189 35.902615 602.473869 28.911003 605.471550 87.276021 608.469231 138.402731" /></g></g><g class="titles"><text class="title plot_title" x="400.0" y="26">Carrier and Modulating Signal</text></g><g class="plot overlay" transform="translate(159, 46)"><g class="series serie-0 color-0" /><g class="series serie-1 color-1" /><g class="series serie-2 color-2" /></g><g class="plot text-overlay" transform="translate(159, 46)"><g class="series serie-0 color-0" /><g class="series serie-1 color-1" /><g class="series serie-2 color-2" /></g><g class="plot tooltip-overlay" transform="translate(159, 46)"><g class="tooltip" style="opacity: 0" transform="translate(0 0)"><a><rect class="tooltip-box" height="0" rx="0" ry="0" width="0" /><text class="text"><tspan class="label" /><tspan class="value" /></text></a></g></g><g class="legends" transform="translate(10, 56)"><g class="legend reactive activate-serie" id="activate-serie-0"><rect class="color-0 reactive" height="12" width="12" x="0.0" y="1.0" /><text x="17.0" y="11.2">Carrier Signal</text></g><g class="legend reactive activate-serie" id="activate-serie-1"><rect class="color-1 reactive" height="12" width="12" x="0.0" y="22.0" /><text x="17.0" y="32.2">Message Signal</text></g><g class="legend reactive activate-serie" id="activate-serie-2"><rect class="color-2 reactive" height="12" width="12" x="0.0" y="43.0" /><text x="17.0" y="53.2">AM Signal</text></g></g><g class="legends" transform="translate(790, 56)" /></g></svg>